<svg width="256" height="256" viewBox="0 0 256 256" fill="none" xmlns="http://www.w3.org/2000/svg">
<rect width="256" height="256" fill="white"/>
<g clip-path="url(#clip0_41_6)">
<path d="M55.7763 148.048V157.68H56.7683C58.1763 157.68 59.3496 157.563 60.2883 157.328C61.2483 157.093 62.0163 156.571 62.5923 155.76C62.8696 155.355 63.1043 154.875 63.2963 154.32C63.4883 153.765 63.6909 153.083 63.9043 152.272C64.1816 151.205 64.4376 150.373 64.6723 149.776C64.9283 149.157 65.2803 148.688 65.7283 148.368C66.3043 147.941 67.0403 147.728 67.9363 147.728C68.7469 147.728 69.5896 147.909 70.4643 148.272L69.7283 149.84C69.1736 149.584 68.5656 149.456 67.9043 149.456C67.3923 149.456 67.0083 149.552 66.7523 149.744C66.5603 149.893 66.3896 150.16 66.2403 150.544C66.1123 150.907 65.9096 151.557 65.6323 152.496C65.1629 154.331 64.6723 155.664 64.1603 156.496C63.6696 157.307 62.9549 157.968 62.0163 158.48C63.0829 158.971 63.9576 159.589 64.6403 160.336C65.3229 161.083 65.8776 161.979 66.3043 163.024C66.8163 164.368 67.3816 165.573 68.0003 166.64C68.6403 167.707 69.2909 168.379 69.9523 168.656L69.4083 170.32C68.4056 169.979 67.5736 169.285 66.9123 168.24C66.2723 167.195 65.6003 165.84 64.8963 164.176L64.3843 162.992C63.9789 162.075 63.3069 161.264 62.3683 160.56C61.4296 159.856 60.5123 159.504 59.6163 159.504L55.7763 159.472V170.064H53.8563V148.048H55.7763ZM74.8555 148.112H76.7755V157.712H88.5835V148.112H90.5035V170H88.5835V159.504H76.7755V170H74.8555V148.112ZM114.552 170H112.632V154.576L112.824 152.048L111.16 154.224L99.8963 168.176L98.1043 170.032H96.8563V148.08H98.7763V165.232L98.7443 166.832L99.8323 165.392L113.944 147.792H114.552V170ZM129.142 159.28C127.947 159.28 126.859 159.632 125.878 160.336C124.918 161.04 124.267 161.904 123.926 162.928L123.478 164.24C122.923 165.925 122.486 167.109 122.166 167.792C121.462 169.285 120.673 170.235 119.798 170.64L119.094 169.008C119.521 168.816 119.937 168.325 120.342 167.536C120.747 166.725 121.089 165.904 121.366 165.072L121.75 163.92C121.963 163.237 122.155 162.672 122.326 162.224C122.497 161.776 122.71 161.349 122.966 160.944C123.585 159.941 124.481 159.099 125.654 158.416C124.587 157.84 123.787 157.211 123.254 156.528C122.742 155.824 122.305 154.949 121.942 153.904C121.878 153.755 121.729 153.349 121.494 152.688C121.281 152.027 121.025 151.387 120.726 150.768C120.15 149.595 119.606 148.912 119.094 148.72L119.766 147.088C120.619 147.429 121.377 148.229 122.038 149.488C122.486 150.299 123.019 151.6 123.638 153.392C124.086 154.693 124.769 155.717 125.686 156.464C126.625 157.189 127.702 157.552 128.918 157.552L131.35 157.52V148.112H133.27V157.52H136.15C136.662 157.52 137.238 157.371 137.878 157.072C138.518 156.752 139.073 156.379 139.542 155.952C139.99 155.547 140.374 155.003 140.694 154.32C141.035 153.616 141.398 152.741 141.782 151.696C142.23 150.437 142.625 149.541 142.966 149.008C143.542 148.027 144.203 147.387 144.95 147.088L145.59 148.72C145.099 148.912 144.566 149.605 143.99 150.8C143.691 151.44 143.286 152.475 142.774 153.904L142.454 154.8C142.155 155.547 141.697 156.24 141.078 156.88C140.481 157.499 139.809 158.011 139.062 158.416C140.001 158.992 140.758 159.643 141.334 160.368C141.718 160.859 142.038 161.413 142.294 162.032C142.55 162.629 142.838 163.419 143.158 164.4C143.499 165.467 143.777 166.235 143.99 166.704C144.566 168.027 145.11 168.795 145.622 169.008L144.918 170.64C144.363 170.384 143.862 169.947 143.414 169.328C142.987 168.709 142.582 167.941 142.198 167.024C141.793 166.043 141.43 165.008 141.11 163.92C140.875 163.195 140.683 162.661 140.534 162.32C140.385 161.979 140.171 161.648 139.894 161.328C139.617 161.008 139.211 160.667 138.678 160.304C138.081 159.877 137.579 159.6 137.174 159.472C136.769 159.344 136.267 159.28 135.67 159.28H133.27V170H131.35V159.28H129.142ZM150.137 148.112H152.057V157.712H163.865V148.112H165.785V170H163.865V159.504H152.057V170H150.137V148.112ZM179.338 147.504H179.946L189.354 170H187.306L184.202 162.736H175.082L172.042 170H169.993L179.338 147.504ZM180.426 153.456C180.084 152.603 179.818 151.771 179.626 150.96C179.37 151.963 179.114 152.795 178.858 153.456L175.85 160.944H183.434L180.426 153.456ZM207.174 148.112V170H205.254V149.904H200.134C198.897 149.904 197.884 150.363 197.094 151.28C196.305 152.176 195.91 153.328 195.91 154.736C195.91 156.165 196.326 157.296 197.158 158.128C197.99 158.96 199.1 159.376 200.486 159.376H203.27V161.168C202.289 161.232 201.51 161.445 200.934 161.808C200.38 162.149 199.729 162.821 198.982 163.824L195.174 168.976C194.918 169.317 194.609 169.616 194.246 169.872C193.884 170.107 193.393 170.224 192.774 170.224C192.262 170.224 191.793 170.075 191.366 169.776L192.166 168.208C192.337 168.336 192.55 168.4 192.806 168.4C193.02 168.4 193.18 168.368 193.286 168.304C193.414 168.219 193.553 168.091 193.702 167.92C193.937 167.664 194.438 167.003 195.206 165.936C195.996 164.869 196.582 164.08 196.966 163.568L198.246 161.808C198.737 161.168 199.324 160.773 200.006 160.624C199.985 160.624 199.729 160.635 199.238 160.656C198.769 160.656 198.353 160.624 197.99 160.56C197.457 160.453 196.881 160.144 196.262 159.632C195.644 159.12 195.11 158.427 194.662 157.552C194.214 156.677 193.99 155.675 193.99 154.544C193.99 153.349 194.246 152.261 194.758 151.28C195.292 150.299 196.006 149.531 196.902 148.976C197.82 148.4 198.854 148.112 200.006 148.112H207.174ZM77.45 188.048H93.002V210H91.082V189.84H79.37V210H77.45V188.048ZM109.052 210.544C106.982 210.544 105.105 210.064 103.42 209.104C101.756 208.123 100.433 206.789 99.4515 205.104C98.4915 203.397 98.0115 201.509 98.0115 199.44V198.832C98.0115 196.741 98.4915 194.843 99.4515 193.136C100.412 191.408 101.724 190.053 103.388 189.072C105.052 188.091 106.897 187.6 108.924 187.6C110.972 187.6 112.828 188.091 114.492 189.072C116.156 190.053 117.468 191.408 118.428 193.136C119.388 194.843 119.868 196.741 119.868 198.832V199.44C119.868 201.552 119.398 203.451 118.46 205.136C117.521 206.821 116.23 208.144 114.588 209.104C112.945 210.064 111.1 210.544 109.052 210.544ZM108.956 208.752C110.641 208.752 112.166 208.347 113.532 207.536C114.897 206.725 115.974 205.616 116.764 204.208C117.553 202.779 117.948 201.189 117.948 199.44V198.832C117.948 197.061 117.542 195.461 116.732 194.032C115.942 192.581 114.854 191.451 113.468 190.64C112.102 189.808 110.577 189.392 108.892 189.392C107.228 189.392 105.713 189.808 104.348 190.64C102.982 191.472 101.905 192.613 101.116 194.064C100.326 195.493 99.9315 197.083 99.9315 198.832V199.44C99.9315 201.189 100.326 202.779 101.116 204.208C101.905 205.616 102.982 206.725 104.348 207.536C105.734 208.347 107.27 208.752 108.956 208.752ZM125.367 210.512C124.833 210.512 124.321 210.395 123.831 210.16C123.361 209.925 122.967 209.595 122.647 209.168L124.055 208.08C124.396 208.528 124.865 208.752 125.463 208.752C125.932 208.752 126.295 208.624 126.551 208.368C126.828 208.091 127.073 207.675 127.287 207.12C127.521 206.48 127.692 205.744 127.799 204.912C127.927 204.059 128.044 203.077 128.151 201.968L128.215 201.2C128.471 197.979 128.62 193.616 128.663 188.112L142.007 188.08V210H140.087V189.904H130.455C130.433 193.275 130.305 196.805 130.071 200.496C129.836 204.165 129.42 206.704 128.823 208.112C128.481 208.923 128.033 209.531 127.479 209.936C126.924 210.32 126.22 210.512 125.367 210.512ZM150.339 188.048V197.68H151.331C152.739 197.68 153.912 197.563 154.851 197.328C155.811 197.093 156.579 196.571 157.155 195.76C157.432 195.355 157.667 194.875 157.859 194.32C158.051 193.765 158.253 193.083 158.467 192.272C158.744 191.205 159 190.373 159.235 189.776C159.491 189.157 159.843 188.688 160.291 188.368C160.867 187.941 161.603 187.728 162.499 187.728C163.309 187.728 164.152 187.909 165.027 188.272L164.291 189.84C163.736 189.584 163.128 189.456 162.467 189.456C161.955 189.456 161.571 189.552 161.315 189.744C161.123 189.893 160.952 190.16 160.803 190.544C160.675 190.907 160.472 191.557 160.195 192.496C159.725 194.331 159.235 195.664 158.723 196.496C158.232 197.307 157.517 197.968 156.579 198.48C157.645 198.971 158.52 199.589 159.203 200.336C159.885 201.083 160.44 201.979 160.867 203.024C161.379 204.368 161.944 205.573 162.563 206.64C163.203 207.707 163.853 208.379 164.515 208.656L163.971 210.32C162.968 209.979 162.136 209.285 161.475 208.24C160.835 207.195 160.163 205.84 159.459 204.176L158.947 202.992C158.541 202.075 157.869 201.264 156.931 200.56C155.992 199.856 155.075 199.504 154.179 199.504L150.339 199.472V210.064H148.419V188.048H150.339ZM175.681 187.504H176.289L185.697 210H183.649L180.545 202.736H171.425L168.385 210H166.337L175.681 187.504ZM176.769 193.456C176.428 192.603 176.161 191.771 175.969 190.96C175.713 191.963 175.457 192.795 175.201 193.456L172.193 200.944H179.777L176.769 193.456Z" fill="black"/>
</g>
<path d="M164.978 37.25H176.396C177.788 37.25 178.917 38.3786 178.917 39.7708V105.509C178.917 107.549 176.513 108.904 174.649 108.076C170.64 106.295 163.95 104.119 155.191 104.119C140.363 104.119 128.5 112.875 128.5 112.875C128.5 112.875 116.637 104.119 101.809 104.119C93.0493 104.119 86.3595 106.295 82.351 108.076C80.4866 108.904 78.0833 107.549 78.0833 105.509V39.7708C78.0833 38.3786 79.212 37.25 80.6042 37.25H92.0221" stroke="#F57336" stroke-width="4" stroke-linejoin="round"/>
<path d="M128.5 41.8333C122.954 34.7742 114.404 27.7151 93.2143 27.197C91.8225 27.163 90.6875 28.2935 90.6875 29.6857C90.6875 40.0135 90.6875 79.113 90.6875 90.6765C90.6875 92.0685 91.8226 93.1621 93.2141 93.2075C114.404 93.9002 122.954 103.295 128.5 110.354M128.5 41.8333C134.046 34.7742 142.596 27.7151 163.786 27.197C165.178 27.163 166.312 28.2681 166.312 29.6603C166.312 41.205 166.312 79.1281 166.312 90.673C166.312 92.065 165.178 93.1621 163.786 93.2075C142.596 93.9002 134.046 103.295 128.5 110.354M128.5 41.8333V110.354Z" fill="white"/>
<path d="M128.5 41.8333C122.954 34.7742 114.404 27.7151 93.2143 27.197C91.8225 27.163 90.6875 28.2935 90.6875 29.6857C90.6875 40.0135 90.6875 79.113 90.6875 90.6765C90.6875 92.0685 91.8226 93.1621 93.2141 93.2075C114.404 93.9002 122.954 103.295 128.5 110.354M128.5 41.8333C134.046 34.7742 142.596 27.7151 163.786 27.197C165.178 27.163 166.312 28.2681 166.312 29.6603C166.312 41.205 166.312 79.1281 166.312 90.673C166.312 92.065 165.178 93.1621 163.786 93.2075C142.596 93.9002 134.046 103.295 128.5 110.354M128.5 41.8333V110.354" stroke="#F57336" stroke-width="4" stroke-linejoin="round"/>
<defs>
<clipPath id="clip0_41_6">
<rect width="160" height="78" fill="white" transform="translate(49 139)"/>
</clipPath>
</defs>
</svg>
